<svg width="1045" height="787" fill="none" xmlns="http://www.w3.org/2000/svg">
  <path d="M517.864 755.938C275.465 737.491-13.606 549.672 1.111 356.281 15.828 162.889 295.797-17.142 538.196 1.305c242.399 18.447 381.932 379.862 367.215 573.253-14.718 193.391-145.148 199.826-387.547 181.38z" fill="#FF8B8B"/>
  <path d="M538.193 787c279.456 0 505.997-13.879 505.997-31 0-17.121-226.541-31-505.997-31s-506 13.879-506 31c0 17.121 226.544 31 506 31z" fill="#343A40"/>
  <path opacity=".1" d="M538.193 776c238.035 0 431-9.178 431-20.5s-192.965-20.5-431-20.5c-238.034 0-431 9.178-431 20.5s192.966 20.5 431 20.5z" fill="#343A40"/>
  <path d="M921.193 162h-752v590h752V162z" fill="#495057"/>
  <path d="M536.638 242.629H351.12a2.243 2.243 0 0 1-1.595-.657 2.264 2.264 0 0 1-.489-2.457c.114-.273.28-.522.489-.731.21-.209.459-.375.732-.488a2.28 2.28 0 0 1 .863-.17h185.518a2.252 2.252 0 0 1 0 4.503zM739.717 267.395H447.932a2.25 2.25 0 0 1-1.592-3.843c.422-.423.994-.66 1.592-.66h291.785a2.253 2.253 0 0 1 .861 4.332 2.253 2.253 0 0 1-.861.171zM537.539 292.161H352.021a2.253 2.253 0 0 1 0-4.503h185.518a2.254 2.254 0 0 1 2.251 2.251 2.252 2.252 0 0 1-2.251 2.252zM739.717 292.611H554.199a2.249 2.249 0 0 1-2.251-2.252 2.254 2.254 0 0 1 2.251-2.251h185.518a2.252 2.252 0 1 1 0 4.503zM537.989 316.926H352.471a2.252 2.252 0 1 1 0-4.503h185.518a2.253 2.253 0 0 1 0 4.503zM538.439 341.692H352.921a2.25 2.25 0 0 1 0-4.503h185.518a2.252 2.252 0 1 1 0 4.503zM622.642 243.08h-53.133a2.253 2.253 0 0 1 0-4.503h53.133a2.25 2.25 0 0 1 1.592 3.843c-.422.422-.994.66-1.592.66zM622.642 316.926h-53.133a2.252 2.252 0 1 1 0-4.503h53.133a2.251 2.251 0 0 1 0 4.503zM622.643 341.242h-53.134a2.258 2.258 0 0 1-2.256-2.252c0-.296.058-.589.172-.862a2.242 2.242 0 0 1 2.084-1.389h53.134a2.243 2.243 0 0 1 1.595.658 2.246 2.246 0 0 1 .661 1.593 2.245 2.245 0 0 1-.661 1.594 2.258 2.258 0 0 1-1.595.658zM711.799 341.242h-53.133a2.253 2.253 0 0 1-2.247-2.252 2.252 2.252 0 0 1 2.247-2.251h53.133a2.24 2.24 0 0 1 1.595.658 2.248 2.248 0 0 1-.732 3.675c-.273.112-.567.17-.863.17zM403.804 267.395H350.67a2.254 2.254 0 0 1-2.251-2.251 2.25 2.25 0 0 1 2.251-2.252h53.134a2.251 2.251 0 1 1 0 4.503zM536.863 607.361H351.346c-.597 0-1.17-.237-1.592-.66a2.249 2.249 0 0 1 0-3.184 2.252 2.252 0 0 1 1.592-.659h185.517a2.252 2.252 0 1 1 0 4.503zM535.962 656.892H350.445a2.252 2.252 0 1 1 0-4.503h185.517a2.25 2.25 0 1 1 0 4.503zM536.413 681.658H350.895a2.28 2.28 0 0 1-.863-.17 2.256 2.256 0 0 1-1.221-2.944 2.246 2.246 0 0 1 2.084-1.389h185.518a2.243 2.243 0 0 1 1.595.658c.21.209.376.457.489.731a2.236 2.236 0 0 1 0 1.725 2.24 2.24 0 0 1-1.221 1.219 2.28 2.28 0 0 1-.863.17zM615.663 657.342H562.53a2.252 2.252 0 1 1 0-4.503h53.133a2.251 2.251 0 0 1 0 4.503zM615.663 681.658H562.53a2.253 2.253 0 0 1 0-4.503h53.133a2.25 2.25 0 0 1 1.592 3.843c-.422.422-.994.66-1.592.66zM704.82 657.342h-53.134a2.252 2.252 0 1 1 0-4.503h53.134a2.253 2.253 0 0 1 0 4.503zM739.942 632.126H448.157a2.252 2.252 0 1 1 0-4.502h291.785a2.252 2.252 0 1 1 0 4.502zM404.029 632.126h-53.134a2.254 2.254 0 0 1-2.251-2.251 2.252 2.252 0 0 1 2.251-2.251h53.134a2.252 2.252 0 1 1 0 4.502zM739.942 706.874H448.157a2.243 2.243 0 0 1-1.595-.658 2.23 2.23 0 0 1-.489-.731 2.236 2.236 0 0 1 0-1.725 2.258 2.258 0 0 1 2.084-1.389h291.785a2.251 2.251 0 1 1 0 4.503zM404.029 706.874h-53.134a2.243 2.243 0 0 1-1.595-.658 2.246 2.246 0 0 1-.661-1.593 2.26 2.26 0 0 1 .661-1.594 2.243 2.243 0 0 1 1.595-.658h53.134a2.243 2.243 0 0 1 1.595.658 2.241 2.241 0 0 1 .489 2.456 2.247 2.247 0 0 1-2.084 1.389zM492.06 401.13l-72.046 71.145 72.046 71.145 16.21-16.21-54.484-54.485 54.934-54.935-16.66-16.66zM598.327 401.13l72.046 71.145-72.046 71.145-16.21-16.21 54.485-54.485-54.935-54.935 16.66-16.66z" fill="#F9F8E6"/>
  <path d="M189.193 186a9 9 0 0 0 9-9 9 9 0 1 0-9 9zM213.193 186a9 9 0 0 0 9-9 9 9 0 1 0-9 9zM237.193 186a9 9 0 0 0 9-9 9 9 0 1 0-9 9z" fill="#F1F3F5"/>
  <path opacity=".1" d="M921.193 192h-752v3h752v-3z" fill="#000"/>
</svg>
