<svg xmlns="http://www.w3.org/2000/svg" fill="none" viewBox="0 0 1440 850"><ellipse cx="1089.4" cy="701.3" fill="#F88585" rx="190.4" ry="31.2"/><path fill="#F8F9FA" d="M966.5 395.5l-2-.3-.2 1 .8.7 1.4-1.4zm246.7 1.4l1.3 1.5.8-.7-.1-1-2 .2zm-130.8 116.4l-1.4 1.4 1.3 1.3 1.4-1.2-1.3-1.5zm-114-117.4c7.6-40.4 36-78.7 63.6-107a347.9 347.9 0 0 1 38-33.7 165 165 0 0 1 17.6-11.5l1.4-.6.4-.1v-4c-.6 0-1.2.1-1.7.3l-1.7.7a168.7 168.7 0 0 0-18.3 12 351.9 351.9 0 0 0-38.6 34.1c-27.8 28.5-56.8 67.5-64.6 109l4 .8zm121-152.9l.5.1 1.4.5 4.4 2.1c3.5 2 8.2 4.8 13.7 8.6a298 298 0 0 1 39 32c28.1 27.6 56.6 66.2 62.8 110.9l4-.5c-6.4-46-35.6-85.4-64.1-113.2-14.3-14-28.4-25-39.5-32.6a162 162 0 0 0-18.8-11 10 10 0 0 0-3.4-.9v4zM965 397L1081 514.6l2.8-2.8L968 394l-2.8 2.8zm118.6 117.8l130.8-116.4-2.7-3-130.7 116.4 2.6 3z"/><path stroke="#F8F9FA" stroke-width="4" d="M1134.9 410.4a45.5 45.5 0 1 1-91 0 45.5 45.5 0 0 1 91 0z"/><path fill="#F8F9FA" fill-rule="evenodd" d="M969.8 395.3zm1.5-1a6 6 0 0 0-1.2.8l1.2.8c1.4.7 3.7 1.5 6.7 2.3 6 1.6 15 3.2 26 4.5 10.9 1.3 23.8 2.3 38.2 3.1-.2 1.2-.3 2.5-.3 4-14.4-.8-27.4-1.9-38.4-3.2a205.5 205.5 0 0 1-26.5-4.5c-3.2-.8-5.7-1.7-7.6-2.7-.9-.4-1.7-1-2.3-1.6a3.9 3.9 0 0 1-1.2-2.7c0-1.2.6-2 1.2-2.7a9 9 0 0 1 2.4-1.7c1.8-.9 4.4-1.7 7.5-2.5 6.4-1.5 15.4-2.9 26.5-4 22.3-2.3 53-3.7 86.8-3.7 33.9 0 64.5 1.4 86.8 3.7 11 1.1 20.1 2.5 26.5 4 3.1.8 5.7 1.6 7.5 2.5 1 .5 1.8 1 2.4 1.7.6.6 1.2 1.5 1.2 2.7 0 1.1-.5 2-1.2 2.7-.6.6-1.4 1.2-2.3 1.6-1.9 1-4.5 1.9-7.6 2.7-6.3 1.7-15.4 3.2-26.5 4.5-11.4 1.4-25 2.5-40.2 3.3 0-1.5-.1-2.8-.3-4 15.1-.8 28.7-1.9 40-3.2 11-1.3 20-2.9 26-4.5 3-.8 5.3-1.6 6.7-2.3a6 6 0 0 0 1.2-.8 33.6 33.6 0 0 0-8-3c-6-1.5-14.8-2.8-25.8-4-22.1-2.2-52.6-3.6-86.4-3.6-33.8 0-64.3 1.4-86.3 3.7-11.1 1.1-20 2.4-26 4-3 .7-5.3 1.4-6.7 2.1zm239.5 1zm0-.5zm-241 0z" clip-rule="evenodd"/><path fill="#F1F3F5" stroke="#CED4DA" stroke-linecap="round" stroke-linejoin="round" stroke-width="4" d="M934.4 695.7C916.9 593 965 541.8 991.2 529.1l49.8 66.6c-80 26.5-105.7 105.6-106.6 100z"/><path fill="#fff" stroke="#CED4DA" stroke-linecap="round" stroke-linejoin="round" stroke-width="4" d="M1247.2 696.2c17.5-102.8-30.6-153.9-56.8-166.6l-49.8 66.5c80 26.6 105.6 105.7 106.6 100.1z"/><path fill="#F8F9FA" fill-rule="evenodd" d="M1089.4 457.9a47.5 47.5 0 0 0 47.4-50.3c44.2-.3 76.4-12 76.4-12 22.3 138.6-82.4 238.7-123.3 238.7-41 0-152.2-95.9-123.4-238.8 0 0 31 11.7 75.5 12.1v2.8a47.5 47.5 0 0 0 47.4 47.5z" clip-rule="evenodd"/><path fill="#CED4DA" d="M1136.8 407.6v-2a2 2 0 0 0-2 2.1h2zm76.4-12l2-.4a2 2 0 0 0-2.7-1.5l.7 1.8zm-246.7 0l.7-2a2 2 0 0 0-2.6 1.5l2 .4zm75.5 12l2 .1a2 2 0 0 0-2-2v2zm92.9 2.8a45.5 45.5 0 0 1-45.5 45.5v4a49.5 49.5 0 0 0 49.5-49.5h-4zm-.1-2.7v2.7h4v-2.9l-4 .2zm2 2a268.5 268.5 0 0 0 77-12.3l-.6-1.9-.7-1.8h-.3a126.8 126.8 0 0 1-5.3 1.8c-3.7 1-9 2.5-15.8 4-13.4 3-32.4 6-54.3 6.1v4zm74.4-13.9c11.1 68.8-9.3 128-37.6 170a207.5 207.5 0 0 1-45.3 49.1c-15 11.5-28.9 17.4-38.4 17.4v4c10.9 0 25.5-6.6 40.9-18.2a211.6 211.6 0 0 0 46.1-50 239.6 239.6 0 0 0 38.3-172.9l-4 .6zM1090 632.3c-9.7 0-23.9-5.7-39.5-16.8a218.6 218.6 0 0 1-82-219.5l-3.8-.9a222.6 222.6 0 0 0 83.5 223.6c15.8 11.3 30.9 17.6 41.8 17.6v-4zM966.5 395.5l-.7 1.9a4 4 0 0 1 .4.1 65 65 0 0 0 5.3 1.8 264.2 264.2 0 0 0 70.5 10.3v-4a260 260 0 0 1-73.4-11.5l-1-.3-.3-.1-.8 1.8zm77.4 15v-2.8l-3.9-.2v3h4zm45.5 45.4a45.5 45.5 0 0 1-45.5-45.5h-4a49.5 49.5 0 0 0 49.5 49.5v-4z"/><ellipse cx="1091.2" cy="335.5" stroke="#F8F9FA" stroke-width="4" rx="97.3" ry="12.6"/><ellipse cx="1092.2" cy="286.1" stroke="#F8F9FA" stroke-width="4" rx="58.2" ry="8.8"/><path fill="#F0F0F0" stroke="#CED4DA" stroke-width="4" d="M1090.8 636.8a23 23 0 0 0 9.4-1.8c2.3-1.1 4.7-3 4.7-5.8s-2.4-4.7-4.7-5.8a23 23 0 0 0-9.4-1.8 23 23 0 0 0-9.4 1.8c-2.4 1.1-4.7 3-4.7 5.8s2.3 4.7 4.7 5.8a23 23 0 0 0 9.4 1.8z"/><path fill="#F1F3F5" d="M967.9 397.9l19.5 5.5c-15.6 104.7 53.4 193 87 225.3-49.8-19.7-80.1-72-90.7-95.9-28.8-64.7-19-116.8-15.8-135z"/></svg>
