<svg width="662" height="441" viewBox="0 0 662 441" fill="none" xmlns="http://www.w3.org/2000/svg">
<mask id="mask0" mask-type="alpha" maskUnits="userSpaceOnUse" x="0" y="267" width="662" height="174">
<rect y="267" width="662" height="174" fill="#FCFCFC"/>
</mask>
<g mask="url(#mask0)">
<circle cx="413" cy="751" r="431" fill="#FCFCFC"/>
</g>
<g opacity="0.1">
<path opacity="0.2" d="M292.513 416.447C327.164 411.702 354.186 400.053 352.868 390.428C351.55 380.803 322.391 376.846 287.741 381.591C253.09 386.335 226.068 397.984 227.386 407.609C228.704 417.235 257.863 421.191 292.513 416.447Z" fill="black"/>
</g>
<g opacity="0.1">
<path opacity="0.2" d="M548.78 401.296C572.959 405.699 593.551 403.824 594.775 397.108C595.998 390.392 577.388 381.377 553.21 376.973C529.031 372.57 508.438 374.445 507.215 381.161C505.992 387.877 524.601 396.892 548.78 401.296Z" fill="black"/>
</g>
<g opacity="0.1">
<path opacity="0.2" d="M292.275 414.704C323.461 410.434 347.78 399.95 346.594 391.287C345.408 382.624 319.166 379.063 287.98 383.333C256.794 387.603 232.475 398.087 233.661 406.75C234.847 415.413 261.089 418.974 292.275 414.704Z" fill="black"/>
</g>
<g opacity="0.1">
<path opacity="0.2" d="M549.001 400.079C570.762 404.042 589.295 402.355 590.396 396.31C591.497 390.266 574.748 382.153 552.987 378.189C531.226 374.226 512.693 375.913 511.592 381.958C510.491 388.003 527.24 396.116 549.001 400.079Z" fill="black"/>
</g>
<g opacity="0.1">
<path opacity="0.2" d="M440.677 426.689C460.156 425.709 475.726 420.528 475.454 415.118C475.182 409.707 459.17 406.115 439.692 407.095C420.213 408.075 404.643 413.255 404.915 418.666C405.187 424.077 421.199 427.669 440.677 426.689Z" fill="black"/>
</g>
<g opacity="0.1">
<path opacity="0.2" d="M440.627 425.709C458.158 424.827 472.171 420.164 471.926 415.295C471.681 410.425 457.271 407.192 439.74 408.074C422.21 408.956 408.197 413.619 408.442 418.488C408.687 423.358 423.097 426.591 440.627 425.709Z" fill="black"/>
</g>
<path d="M108.237 83.0982C111.298 83.0982 113.778 80.6174 113.778 77.5571C113.778 74.4969 111.298 72.0161 108.237 72.0161C105.177 72.0161 102.696 74.4969 102.696 77.5571C102.696 80.6174 105.177 83.0982 108.237 83.0982Z" fill="#F2F2F2"/>
<path d="M584.767 299.99C587.827 299.99 590.308 297.509 590.308 294.449C590.308 291.389 587.827 288.908 584.767 288.908C581.706 288.908 579.226 291.389 579.226 294.449C579.226 297.509 581.706 299.99 584.767 299.99Z" fill="#F2F2F2"/>
<path d="M323.546 121.886C326.607 121.886 329.087 119.405 329.087 116.345C329.087 113.284 326.607 110.803 323.546 110.803C320.486 110.803 318.005 113.284 318.005 116.345C318.005 119.405 320.486 121.886 323.546 121.886Z" fill="#F2F2F2"/>
<path d="M315.273 186.08C317.022 186.08 318.44 184.662 318.44 182.914C318.44 181.165 317.022 179.747 315.273 179.747C313.525 179.747 312.107 181.165 312.107 182.914C312.107 184.662 313.525 186.08 315.273 186.08Z" fill="#FF6584"/>
<path d="M120.903 244.58C122.651 244.58 124.069 243.162 124.069 241.414C124.069 239.665 122.651 238.247 120.903 238.247C119.154 238.247 117.736 239.665 117.736 241.414C117.736 243.162 119.154 244.58 120.903 244.58Z" fill="#FF6584"/>
<path d="M73.408 308.161H71.9658V306.719H71.684V308.161H70.2417V308.443H71.684V309.885H71.9658V308.443H73.408V308.161Z" fill="#F2F2F2"/>
<path d="M536.481 191.008H535.038V189.565H534.757V191.008H533.314V191.289H534.757V192.732H535.038V191.289H536.481V191.008Z" fill="#F2F2F2"/>
<path d="M398.746 230.587H397.304V229.144H397.022V230.587H395.58V230.868H397.022V232.311H397.304V230.868H398.746V230.587Z" fill="#F2F2F2"/>
<path d="M621.179 238.502H619.737V237.06H619.455V238.502H618.013V238.784H619.455V240.226H619.737V238.784H621.179V238.502Z" fill="#F2F2F2"/>
<path d="M352.835 272.54H351.393V271.098H351.111V272.54H349.668V272.822H351.111V274.264H351.393V272.822H352.835V272.54Z" fill="#F2F2F2"/>
<path d="M454.157 274.123H452.714V272.681H452.433V274.123H450.99V274.405H452.433V275.847H452.714V274.405H454.157V274.123Z" fill="#F2F2F2"/>
<path d="M74.991 139.555H73.5488V138.113H73.267V139.555H71.8247V139.837H73.267V141.279H73.5488V139.837H74.991V139.555Z" fill="#F2F2F2"/>
<g opacity="0.1">
<path opacity="0.1" d="M260.454 181.386L257.633 197.546C236.431 142.51 202.707 176.317 202.124 176.908C205.61 172.221 210.226 168.493 215.541 166.072C220.857 163.65 226.7 162.615 232.524 163.062C238.348 163.509 243.964 165.424 248.848 168.629C253.732 171.833 257.725 176.222 260.454 181.386Z" fill="black"/>
</g>
<path d="M379.748 126.89H378.306V125.448H378.024V126.89H376.582V127.172H378.024V128.614H378.306V127.172H379.748V126.89Z" fill="#F2F2F2"/>
<path d="M226.617 182.377H225.175V180.935H224.893V182.377H223.451V182.659H224.893V184.101H225.175V182.659H226.617V182.377Z" fill="#F2F2F2"/>
<path d="M495.319 96.0184H493.876V94.5762H493.595V96.0184H492.152V96.3002H493.595V97.7425H493.876V96.3002H495.319V96.0184Z" fill="#F2F2F2"/>
<path d="M156.166 162.333C157.915 162.333 159.333 160.915 159.333 159.166C159.333 157.418 157.915 156 156.166 156C154.418 156 153 157.418 153 159.166C153 160.915 154.418 162.333 156.166 162.333Z" fill="#F2F2F2"/>
<path d="M383.883 379.772H376.999C376.978 379.556 376.953 379.284 376.92 378.957C376.828 378.015 376.683 376.619 376.474 374.807C376.056 371.182 375.382 365.887 374.357 359.202C372.308 345.833 368.853 326.9 363.235 304.639L363.235 304.639C358.248 284.908 365.968 266.146 376.079 251.398C386.181 236.662 398.597 226.046 402.787 222.662C403.258 222.286 403.624 221.998 403.872 221.804C403.901 221.782 403.928 221.761 403.953 221.741C413.999 225.53 419.722 231.913 422.691 239.365C425.706 246.931 425.899 255.651 424.785 263.962C423.672 272.266 421.261 280.105 419.125 285.876C418.057 288.759 417.059 291.122 416.329 292.762C415.964 293.582 415.666 294.221 415.46 294.654C415.393 294.795 415.335 294.915 415.288 295.011C414.039 295.255 412.815 295.616 411.632 296.088C404.447 298.957 399.168 305.766 395.276 314.198C391.376 322.644 388.817 332.83 387.133 342.63C385.449 352.437 384.636 361.89 384.245 368.889C384.049 372.39 383.958 375.279 383.916 377.293C383.896 378.3 383.887 379.089 383.883 379.627C383.883 379.678 383.883 379.726 383.883 379.772Z" fill="#CED4DA" stroke="#CCCCCC" stroke-width="1.35504"/>
<path opacity="0.2" d="M406.876 222.237C405.913 221.794 404.919 221.372 403.863 220.985C403.863 220.985 403.348 221.387 402.389 222.144C393.967 228.944 352.492 264.804 362.604 304.816C373.829 349.289 376.379 380.45 376.379 380.45H380.98C380.98 380.45 378.43 349.278 367.179 304.805C357.108 264.979 398.181 229.254 406.876 222.237Z" fill="#868E96"/>
<path d="M502.554 295.413C501.996 295.246 501.43 295.107 500.858 294.998C500.811 294.902 500.754 294.784 500.688 294.644C500.481 294.211 500.183 293.571 499.818 292.751C499.087 291.111 498.089 288.749 497.021 285.866C494.883 280.095 492.471 272.256 491.357 263.953C490.242 255.642 490.435 246.924 493.45 239.359C496.42 231.908 502.146 225.526 512.198 221.74C512.2 221.742 512.202 221.743 512.204 221.745C512.401 221.897 512.694 222.126 513.072 222.43L513.073 222.431C516.922 225.512 529.44 236.074 539.715 250.891C549.997 265.718 557.956 284.69 552.913 304.649C547.281 326.91 543.831 345.84 541.788 359.208C540.767 365.892 540.097 371.185 539.683 374.809C539.476 376.621 539.333 378.016 539.241 378.959C539.209 379.284 539.184 379.556 539.164 379.772H532.265C532.265 379.715 532.265 379.655 532.264 379.591C532.261 379.03 532.252 378.207 532.23 377.157C532.186 375.058 532.089 372.051 531.881 368.417C531.463 361.151 530.596 351.369 528.795 341.315C526.996 331.268 524.258 320.913 520.083 312.522C515.915 304.144 510.255 297.609 502.554 295.413Z" fill="#CED4DA" stroke="#C0C6CC" stroke-width="1.35504"/>
<path opacity="0.1" d="M415.746 295.615C414.424 295.85 413.13 296.219 411.883 296.718C406.859 272.131 403.677 247.204 402.363 222.144C403.311 221.387 403.836 220.985 403.836 220.985C445.61 236.327 415.746 295.615 415.746 295.615Z" fill="black"/>
<path opacity="0.1" d="M513.512 221.913C511.809 246.9 508.086 271.708 502.38 296.094C501.735 295.901 501.08 295.748 500.417 295.636C500.417 295.636 470.538 236.347 512.327 221.006C512.312 220.985 512.734 221.299 513.512 221.913Z" fill="black"/>
<path d="M488.074 341.886L488.563 342.355L488.671 342.243L488.719 342.095C492.6 330.11 495.985 318.419 498.874 307.022C523.914 208.35 512.941 132.001 495.676 80.3097C487.045 54.4673 476.848 34.7903 468.804 21.5687C464.782 14.9579 461.298 9.96058 458.817 6.61303C457.577 4.93924 456.587 3.67784 455.906 2.83334C455.593 2.4446 455.345 2.14419 455.168 1.93257L455.228 1.83245L454.751 1.46389L454.697 1.53321C454.513 1.51812 454.191 1.53099 453.907 1.7416L453.756 1.65093C438.928 26.317 427.277 52.7582 419.08 80.346C391.559 172.095 404.478 261.396 415.241 308.238C417.686 318.894 420.021 327.358 421.745 333.16C422.608 336.061 423.317 338.296 423.812 339.808C424.059 340.564 424.252 341.139 424.384 341.525C424.45 341.718 424.501 341.865 424.535 341.963L424.574 342.074L424.584 342.102L424.586 342.11L424.587 342.112L424.587 342.112C424.587 342.112 424.587 342.112 425.226 341.886L424.587 342.112L424.686 342.391L424.957 342.508C447.292 352.14 463.153 352.168 473.473 349.734C478.628 348.517 482.385 346.69 484.861 345.158C486.099 344.392 487.016 343.699 487.628 343.195C487.934 342.942 488.163 342.737 488.318 342.592C488.396 342.52 488.455 342.463 488.496 342.423C488.516 342.403 488.532 342.387 488.543 342.375L488.556 342.362L488.56 342.358L488.562 342.356C488.562 342.356 488.563 342.355 488.074 341.886Z" fill="#F8F9FA" stroke="#C0C6CC" stroke-width="1.35504"/>
<path d="M458.071 190.149C478.451 190.149 494.971 173.628 494.971 153.248C494.971 132.869 478.451 116.348 458.071 116.348C437.692 116.348 421.171 132.869 421.171 153.248C421.171 173.628 437.692 190.149 458.071 190.149Z" fill="#CED4DA"/>
<path d="M484.241 153.268C484.241 158.224 482.834 163.078 480.183 167.265C477.532 171.452 473.747 174.801 469.268 176.921C464.789 179.042 459.8 179.846 454.881 179.242C449.962 178.638 445.316 176.65 441.483 173.509C439.612 171.968 437.962 170.177 436.579 168.187C435.958 167.298 435.394 166.371 434.889 165.411C432.927 161.664 431.903 157.498 431.907 153.268C431.907 153.057 431.907 152.851 431.907 152.645C432.041 147.049 433.964 141.643 437.394 137.219C440.824 132.795 445.581 129.586 450.967 128.062C453.024 127.495 455.141 127.174 457.273 127.104H458.056C461.493 127.102 464.898 127.777 468.074 129.091C471.251 130.405 474.137 132.332 476.569 134.762C479 137.191 480.929 140.076 482.246 143.252C483.562 146.427 484.24 149.831 484.241 153.268Z" fill="#F88585"/>
<path d="M495.028 80.5244C453.162 100.569 419.703 80.5244 419.703 80.5244C427.894 52.9951 439.53 26.6113 454.337 2C454.337 2 477.807 28.9475 495.028 80.5244Z" fill="#CED4DA"/>
<path d="M498.217 306.855C496.26 314.562 494.079 322.401 491.675 330.372C490.535 334.174 489.333 338.007 488.069 341.87C488.069 341.87 469.668 361.039 425.221 341.87C425.221 341.87 423.778 337.806 421.614 330.372C419.997 324.757 417.983 317.231 415.881 308.071C415.881 308.071 432.427 315.134 455.913 315.134C470.422 315.184 484.798 312.37 498.217 306.855V306.855Z" fill="#CED4DA"/>
<path d="M491.675 330.372C490.535 334.174 489.332 338.007 488.069 341.87C488.069 341.87 469.667 361.039 425.22 341.87C425.22 341.87 423.778 337.806 421.614 330.372C421.609 330.372 466.911 343.406 491.675 330.372Z" fill="#F8F9FA"/>
<path opacity="0.2" d="M450.983 128.027L450.927 128.068L431.917 152.61C431.917 152.816 431.917 153.022 431.917 153.233C431.914 157.462 432.938 161.629 434.9 165.375L457.299 127.068L450.983 128.027Z" fill="white"/>
<path opacity="0.2" d="M457.052 150.178L441.484 173.488C439.613 171.948 437.963 170.157 436.58 168.167L455.125 148.261L457.052 150.178Z" fill="white"/>
<path opacity="0.2" d="M435.168 341.876C435.168 341.876 430.727 329.352 425.844 308.077C415.092 261.28 402.198 172.113 429.671 80.5243C437.056 55.7425 447.227 31.8778 459.988 9.38723C456.5 4.49845 454.321 2.00513 454.321 2.00513C439.52 26.6154 427.889 52.9975 419.703 80.5243C392.23 172.113 405.124 261.28 415.876 308.077C420.759 329.352 425.2 341.876 425.2 341.876C442.761 349.443 456.253 351.03 466.154 350.185C457.695 349.541 447.423 347.156 435.168 341.876Z" fill="#868E96"/>
</svg>
