<svg width="663" height="541" viewBox="0 0 663 541" fill="none" xmlns="http://www.w3.org/2000/svg">
<g clip-path="url(#clip0)">
<path d="M342.961 428.3C154.497 428.3 1.64809 479.12 1.00732 541.891H663.5V503.399C615.81 459.593 490.851 428.3 342.961 428.3Z" fill="#F2F2F2"/>
<g opacity="0.1">
<path opacity="0.1" d="M278.635 513.362C313.609 513.362 341.961 505.486 341.961 495.771C341.961 486.056 313.609 478.18 278.635 478.18C243.661 478.18 215.309 486.056 215.309 495.771C215.309 505.486 243.661 513.362 278.635 513.362Z" fill="black"/>
</g>
<g opacity="0.1">
<path opacity="0.1" d="M415.578 481.699C450.552 481.699 478.904 473.823 478.904 464.108C478.904 454.393 450.552 446.518 415.578 446.518C380.604 446.518 352.251 454.393 352.251 464.108C352.251 473.823 380.604 481.699 415.578 481.699Z" fill="black"/>
</g>
<g opacity="0.1">
<path opacity="0.1" d="M278.635 511.603C310.112 511.603 335.629 504.515 335.629 495.771C335.629 487.027 310.112 479.939 278.635 479.939C247.158 479.939 221.642 487.027 221.642 495.771C221.642 504.515 247.158 511.603 278.635 511.603Z" fill="black"/>
</g>
<g opacity="0.1">
<path opacity="0.1" d="M415.578 479.94C447.054 479.94 472.571 472.852 472.571 464.108C472.571 455.365 447.054 448.277 415.578 448.277C384.101 448.277 358.584 455.365 358.584 464.108C358.584 472.852 384.101 479.94 415.578 479.94Z" fill="black"/>
</g>
<path d="M109.237 183.098C112.298 183.098 114.778 180.617 114.778 177.557C114.778 174.497 112.298 172.016 109.237 172.016C106.177 172.016 103.696 174.497 103.696 177.557C103.696 180.617 106.177 183.098 109.237 183.098Z" fill="#F2F2F2"/>
<path d="M585.767 399.99C588.827 399.99 591.308 397.509 591.308 394.449C591.308 391.389 588.827 388.908 585.767 388.908C582.706 388.908 580.226 391.389 580.226 394.449C580.226 397.509 582.706 399.99 585.767 399.99Z" fill="#F2F2F2"/>
<path d="M324.546 221.886C327.607 221.886 330.087 219.405 330.087 216.345C330.087 213.284 327.607 210.803 324.546 210.803C321.486 210.803 319.005 213.284 319.005 216.345C319.005 219.405 321.486 221.886 324.546 221.886Z" fill="#F2F2F2"/>
<path d="M599.223 186.264C600.972 186.264 602.39 184.847 602.39 183.098C602.39 181.349 600.972 179.932 599.223 179.932C597.475 179.932 596.057 181.349 596.057 183.098C596.057 184.847 597.475 186.264 599.223 186.264Z" fill="#FF6584"/>
<path d="M121.903 344.58C123.651 344.58 125.069 343.162 125.069 341.414C125.069 339.665 123.651 338.247 121.903 338.247C120.154 338.247 118.736 339.665 118.736 341.414C118.736 343.162 120.154 344.58 121.903 344.58Z" fill="#FF6584"/>
<path d="M74.408 408.161H72.9658V406.719H72.684V408.161H71.2417V408.443H72.684V409.885H72.9658V408.443H74.408V408.161Z" fill="#F2F2F2"/>
<path d="M537.481 291.008H536.038V289.565H535.757V291.008H534.314V291.289H535.757V292.732H536.038V291.289H537.481V291.008Z" fill="#F2F2F2"/>
<path d="M399.746 330.587H398.304V329.144H398.022V330.587H396.58V330.868H398.022V332.311H398.304V330.868H399.746V330.587Z" fill="#F2F2F2"/>
<path d="M622.179 338.502H620.737V337.06H620.455V338.502H619.013V338.784H620.455V340.226H620.737V338.784H622.179V338.502Z" fill="#F2F2F2"/>
<path d="M353.835 372.54H352.393V371.098H352.111V372.54H350.668V372.822H352.111V374.264H352.393V372.822H353.835V372.54Z" fill="#F2F2F2"/>
<path d="M455.157 374.123H453.714V372.681H453.433V374.123H451.99V374.405H453.433V375.847H453.714V374.405H455.157V374.123Z" fill="#F2F2F2"/>
<path d="M75.991 239.555H74.5488V238.113H74.267V239.555H72.8247V239.837H74.267V241.279H74.5488V239.837H75.991V239.555Z" fill="#F2F2F2"/>
<path d="M538.17 130.608H535.895V176.57H538.17V130.608Z" fill="#E6E6E6"/>
<path d="M484.245 252.793L463.312 301.03L467.408 307.856L466.042 310.131L475.599 315.137V312.407L479.239 311.497L494.711 283.282L484.245 252.793Z" fill="#E6E6E6"/>
<path d="M467.862 309.676C467.862 309.676 452.39 333.795 469.683 337.435C486.975 341.076 472.868 311.952 472.868 311.952L467.862 309.676Z" fill="#E6E6E6"/>
<path d="M490.161 298.755L484.7 316.502L482.425 339.256L478.329 347.447L482.88 384.307L490.161 391.588L493.346 427.994V444.376L501.993 459.393L490.858 475.196C490.333 475.939 490.019 476.81 489.949 477.717C489.879 478.624 490.056 479.532 490.461 480.347C490.866 481.161 491.484 481.851 492.25 482.342C493.015 482.833 493.9 483.108 494.809 483.137C497.267 483.201 500.507 482.507 504.723 480.326C517.92 473.5 517.465 467.129 517.465 467.129C517.465 467.129 525.656 467.129 526.111 460.758C526.566 454.387 521.105 408.881 521.105 408.881L516.1 389.313V336.07H517.92L518.83 381.577L522.926 398.414L523.381 405.695L529.297 478.506C529.297 478.506 555.69 485.787 557.056 479.871C558.421 473.955 547.044 470.315 547.044 470.315L553.87 457.118V431.634L551.595 426.173L547.499 389.313L554.325 382.032L557.966 377.481V341.076L553.415 326.969L552.05 315.137L544.769 296.935C544.769 296.935 511.549 286.013 490.161 298.755Z" fill="white"/>
<path d="M549.319 195.91C549.32 201.384 548.021 206.779 545.529 211.653C543.038 216.527 539.425 220.74 534.988 223.945C530.551 227.151 525.417 229.257 520.007 230.092C514.597 230.926 509.067 230.465 503.87 228.745C498.674 227.026 493.959 224.098 490.115 220.201C486.271 216.305 483.406 211.552 481.757 206.332C480.108 201.113 479.721 195.577 480.628 190.179C481.535 184.781 483.71 179.675 486.975 175.282L486.985 175.273C491.322 169.437 497.389 165.118 504.323 162.928C511.256 160.738 518.704 160.79 525.607 163.075C532.509 165.36 538.516 169.763 542.773 175.658C547.03 181.552 549.321 188.639 549.319 195.91V195.91Z" fill="#866E6E"/>
<g opacity="0.1">
<path opacity="0.1" d="M544.404 181.571L541.583 197.73C520.382 142.695 486.657 176.501 486.074 177.093C489.56 172.406 494.176 168.677 499.492 166.256C504.808 163.835 510.65 162.8 516.474 163.247C522.298 163.694 527.914 165.609 532.798 168.813C537.682 172.017 541.675 176.406 544.404 181.571V181.571Z" fill="black"/>
</g>
<path d="M545.315 179.751L542.494 195.91C521.292 140.874 487.567 174.681 486.985 175.273C490.47 170.585 495.086 166.857 500.402 164.436C505.718 162.015 511.561 160.979 517.385 161.426C523.209 161.874 528.825 163.789 533.709 166.993C538.593 170.197 542.586 174.586 545.315 179.751V179.751Z" fill="white"/>
<path d="M540.574 172.929L545.315 189.386C545.315 189.386 535.473 218.883 489.836 219.911L488.341 224.124L483.335 225.49L481.06 235.046L487.43 295.57C487.43 295.57 484.7 301.486 489.251 301.03C489.251 301.03 519.285 291.019 545.224 300.12C545.224 300.12 550.685 302.396 549.319 297.39C549.319 297.39 567.522 286.013 566.157 274.182C564.792 262.35 567.522 207.287 567.522 207.287C567.522 207.287 570.252 191.36 562.061 187.719C562.061 187.719 550.031 170.88 540.574 172.929Z" fill="white"/>
<path d="M530.597 287.917C530.597 287.917 502.086 290.78 509.978 306.591C517.871 322.402 531.925 293.253 531.925 293.253L530.597 287.917Z" fill="#E6E6E6"/>
<path d="M545.224 217.298C545.224 217.298 540.218 223.214 542.039 232.77C543.859 242.327 550.685 263.715 550.685 263.715L526.566 286.013L533.847 296.025L566.612 279.187L573.893 274.636C572.083 256.23 567.578 238.19 560.522 221.094L559.331 218.208C559.331 218.208 550.685 214.568 545.224 217.298Z" fill="#E6E6E6"/>
<path d="M542.949 201.143C547.598 201.143 551.367 197.374 551.367 192.724C551.367 188.075 547.598 184.306 542.949 184.306C538.299 184.306 534.53 188.075 534.53 192.724C534.53 197.374 538.299 201.143 542.949 201.143Z" fill="#E6E6E6"/>
<path d="M537.033 136.524C540.426 136.524 543.176 133.773 543.176 130.38C543.176 126.988 540.426 124.237 537.033 124.237C533.64 124.237 530.89 126.988 530.89 130.38C530.89 133.773 533.64 136.524 537.033 136.524Z" fill="#E6E6E6"/>
<path d="M380.748 226.89H379.306V225.448H379.024V226.89H377.582V227.172H379.024V228.614H379.306V227.172H380.748V226.89Z" fill="#F2F2F2"/>
<path d="M510.567 182.561H509.125V181.119H508.843V182.561H507.401V182.843H508.843V184.285H509.125V182.843H510.567V182.561Z" fill="#F2F2F2"/>
<path d="M496.319 196.018H494.876V194.576H494.595V196.018H493.152V196.3H494.595V197.742H494.876V196.3H496.319V196.018Z" fill="#F2F2F2"/>
<path d="M440.117 162.517C441.865 162.517 443.283 161.1 443.283 159.351C443.283 157.602 441.865 156.185 440.117 156.185C438.368 156.185 436.95 157.602 436.95 159.351C436.95 161.1 438.368 162.517 440.117 162.517Z" fill="#F2F2F2"/>
<g opacity="0.1">
<path opacity="0.1" d="M197.967 0.879761V385.982H189.444V23.7779C192.294 15.6149 195.173 7.95382 197.967 0.879761Z" fill="black"/>
</g>
<path d="M171.314 394.169C169.734 394.45 168.186 394.892 166.695 395.487C133.475 408.753 134.029 495.592 134.029 495.592H124.249C124.249 495.592 121.169 458.326 107.749 405.157C95.6595 357.321 145.244 314.45 155.314 306.32C156.447 305.415 157.075 304.935 157.075 304.935C207.017 323.288 171.314 394.169 171.314 394.169Z" fill="#CED4DA"/>
<path opacity="0.2" d="M160.709 306.444C159.558 305.914 158.369 305.409 157.106 304.947C157.106 304.947 156.49 305.427 155.345 306.333C145.275 314.462 95.6908 357.334 107.781 405.169C121.201 458.338 124.249 495.593 124.249 495.593H129.749C129.749 495.593 126.7 458.326 113.25 405.157C101.209 357.543 150.313 314.832 160.709 306.444Z" fill="#868E96"/>
<path d="M336.087 405.169C322.636 458.338 319.606 495.592 319.606 495.592H309.807C309.807 495.592 310.423 404.836 274.868 394.705C274.098 394.474 273.314 394.291 272.522 394.157C272.522 394.157 236.801 323.275 286.761 304.935C286.761 304.935 287.266 305.31 288.177 306.043C297.434 313.452 348.312 356.779 336.087 405.169Z" fill="#CED4DA"/>
<path opacity="0.1" d="M171.314 394.17C169.733 394.45 168.186 394.892 166.695 395.488C160.689 366.094 156.884 336.293 155.313 306.333C156.447 305.427 157.075 304.947 157.075 304.947C207.017 323.288 171.314 394.17 171.314 394.17Z" fill="black"/>
<path opacity="0.1" d="M288.196 306.056C286.159 335.929 281.709 365.588 274.887 394.742C274.117 394.511 273.333 394.328 272.54 394.194C272.54 394.194 236.819 323.313 286.779 304.972C286.761 304.947 287.266 305.323 288.196 306.056Z" fill="black"/>
<path d="M269.911 407.608C266.462 421.215 262.419 435.175 257.784 449.488C257.784 449.488 235.785 472.405 182.647 449.488C182.647 449.488 177.338 434.522 171.499 409.08C158.646 353.14 143.23 246.537 176.075 137.04C185.856 104.123 199.758 72.5737 217.45 43.1427C217.45 43.1427 245.509 75.3594 266.104 137.021C286.7 198.683 299.805 289.803 269.911 407.608Z" fill="#F8F9FA"/>
<path d="M221.915 268.081C246.279 268.081 266.03 248.329 266.03 223.965C266.03 199.601 246.279 179.85 221.915 179.85C197.55 179.85 177.799 199.601 177.799 223.965C177.799 248.329 197.55 268.081 221.915 268.081Z" fill="#AFC0E0"/>
<path d="M253.202 223.99C253.201 229.914 251.519 235.717 248.35 240.723C245.181 245.729 240.656 249.732 235.301 252.267C229.946 254.802 223.981 255.764 218.101 255.042C212.22 254.32 206.666 251.943 202.083 248.187C199.847 246.345 197.874 244.205 196.22 241.825C195.478 240.763 194.803 239.654 194.2 238.506C191.854 234.027 190.63 229.046 190.634 223.99C190.634 223.737 190.634 223.491 190.634 223.244C190.795 216.554 193.094 210.091 197.195 204.802C201.295 199.513 206.982 195.676 213.422 193.855C215.881 193.177 218.411 192.792 220.96 192.709H221.896C226.006 192.707 230.076 193.514 233.873 195.085C237.671 196.655 241.122 198.959 244.029 201.864C246.936 204.769 249.243 208.218 250.816 212.014C252.39 215.811 253.201 219.88 253.202 223.99Z" fill="#F88585"/>
<path d="M266.098 137.021C216.046 160.985 176.044 137.021 176.044 137.021C185.836 104.109 199.749 72.5663 217.45 43.1427C217.45 43.1427 245.51 75.3594 266.098 137.021Z" fill="#CED4DA"/>
<path d="M269.911 407.608C267.57 416.822 264.963 426.193 262.089 435.723C260.726 440.268 259.289 444.85 257.778 449.469C257.778 449.469 235.779 472.386 182.64 449.469C182.64 449.469 180.916 444.61 178.329 435.723C176.395 429.01 173.987 420.012 171.475 409.062C171.475 409.062 191.257 417.505 219.335 417.505C236.68 417.565 253.867 414.201 269.911 407.608V407.608Z" fill="#CED4DA"/>
<path d="M262.089 435.723C260.726 440.268 259.289 444.85 257.778 449.47C257.778 449.47 235.778 472.386 182.64 449.47C182.64 449.47 180.916 444.61 178.329 435.723C178.323 435.723 232.483 451.305 262.089 435.723Z" fill="#F8F9FA"/>
<path opacity="0.2" d="M213.441 193.812L213.373 193.861L190.647 223.201C190.647 223.448 190.647 223.694 190.647 223.947C190.643 229.003 191.867 233.984 194.213 238.463L220.991 192.666L213.441 193.812Z" fill="white"/>
<path opacity="0.2" d="M220.696 220.294L202.084 248.163C199.847 246.321 197.874 244.18 196.221 241.801L218.392 218.003L220.696 220.294Z" fill="white"/>
<path opacity="0.2" d="M194.533 449.476C194.533 449.476 189.224 434.504 183.386 409.068C170.532 353.121 155.117 246.519 187.962 137.021C196.791 107.394 208.95 78.8627 224.206 51.9745C220.037 46.1298 217.432 43.1489 217.432 43.1489C199.736 72.5713 185.831 104.112 176.044 137.021C143.2 246.519 158.615 353.121 171.468 409.068C177.307 434.504 182.616 449.476 182.616 449.476C203.611 458.523 219.741 460.42 231.578 459.41C221.466 458.64 209.185 455.788 194.533 449.476Z" fill="#868E96"/>
</g>
<defs>
<clipPath id="clip0">
<rect width="663" height="541" fill="white"/>
</clipPath>
</defs>
</svg>
